<svg xmlns="http://www.w3.org/2000/svg" xmlns:xlink="http://www.w3.org/1999/xlink" width="24" height="24" x="0" y="0" viewBox="0 0 512 512">
  <path d="M256 512c-68.4 0-132.7-26.6-181-75S0 324.4 0 256 26.6 123.3 75 75 187.6 0 256 0s132.7 26.6 181 75 75 112.6 75 181-26.6 132.7-75 181-112.6 75-181 75zm0-502C120.3 10 10 120.4 10 256s110.3 246 246 246 246-110.4 246-246S391.6 10 256 10zm0 448.8c-67.4 0-130.1-33.5-167.9-89.7-.9-1.4-1.1-3.1-.5-4.6l33.5-85.6c.8-1.9 2.6-3.2 4.7-3.2h260.4c2.1 0 3.9 1.3 4.7 3.2l33.5 85.6c.6 1.5.4 3.2-.5 4.6-37.8 56.2-100.5 89.7-167.9 89.7zM97.9 365.7c36 52.1 94.9 83.1 158.1 83.1s122.1-31 158.1-83.1l-31.3-79.9H129.2zM256 257.1c-56.2 0-101.9-45.7-101.9-101.9s45.7-102 101.9-102 102 45.7 102 101.9-45.8 102-102 102zm0-193.9c-50.7 0-91.9 41.2-91.9 91.9S205.3 247 256 247s92-41.2 92-91.9-41.3-91.9-92-91.9z" fill="#bbbbbb" stroke-width="2">
  </path>
</svg>
