<svg xmlns="http://www.w3.org/2000/svg" version="1.1" width="14" height="16" viewBox="0 0 32 32"  class="security">
<g>
<path fill="#46b63c" d="M16 29.881c-.308 0-.614-.07-.895-.21l-4.024-2.012A10.94 10.94 0 0 1 5 17.82V7.934c0-1.036.781-1.892 1.817-1.99a15.006 15.006 0 0 0 7.945-3.211 1.975 1.975 0 0 1 2.475 0 15.003 15.003 0 0 0 7.945 3.211 1.995 1.995 0 0 1 1.817 1.99v9.886c0 4.193-2.33 7.963-6.081 9.839l-4.024 2.012a2 2 0 0 1-.895.21zm-.009-25.584a16.64 16.64 0 0 1-4.642 2.64 17.037 17.037 0 0 1-4.343.998l-.007 9.885a8.95 8.95 0 0 0 4.976 8.05l4.024 2.012 4.024-2.012a8.951 8.951 0 0 0 4.976-8.05V7.934a16.976 16.976 0 0 1-9.009-3.637z" opacity="0.8588235294117647" data-original="#0c474d" class="">
</path>
<path fill="#46b63c" d="M15 19.545h-.003a.998.998 0 0 1-.715-.303l-3-3.09a1 1 0 1 1 1.435-1.393l2.286 2.355 4.283-4.359a.999.999 0 1 1 1.426 1.401l-5 5.09a1 1 0 0 1-.713.299z" opacity="0.8588235294117647" data-original="#3cacb6" class="">
</path>
</g>
</svg>